<?xml version="1.0" ?><svg viewBox="0 0 64 64" xmlns="http://www.w3.org/2000/svg"><defs><style>.a{fill:none;stroke-linejoin:round;stroke-width:2px;}</style></defs><title/><circle class="a" cx="32" cy="32" r="27"/><circle class="a" cx="32" cy="32" r="9"/><path class="a" d="M56,32c0,2.37-4.28,4-5,6.18s1.73,6.08.39,7.93-5.8.72-7.66,2.07-2.12,5.93-4.34,6.65S34.37,52,32,52s-5.28,3.53-7.42,2.83-2.49-5.3-4.34-6.65-6.3-.21-7.66-2.07,1.11-5.71.39-7.93S8,34.37,8,32s4.28-4,5-6.18-1.73-6.08-.39-7.93,5.8-.72,7.66-2.07,2.12-5.93,4.34-6.65S29.63,12,32,12s5.28-3.53,7.42-2.83,2.49,5.3,4.34,6.65,6.3.21,7.66,2.07S50.31,23.6,51,25.82,56,29.63,56,32Z"/></svg>