<?xml version="1.0" ?><!DOCTYPE svg  PUBLIC '-//W3C//DTD SVG 20010904//EN'  'http://www.w3.org/TR/2001/REC-SVG-20010904/DTD/svg10.dtd'><svg height="512.000000pt" preserveAspectRatio="xMidYMid meet" version="1.0" viewBox="0 0 512.000000 512.000000" width="512.000000pt" xmlns="http://www.w3.org/2000/svg"><g fill="#000000" stroke="none" transform="translate(0.000000,512.000000) scale(0.100000,-0.100000)"><path d="M1567 3862 c-16 -17 -17 -79 -17 -689 l0 -671 -106 -4 c-91 -3 -108 -6 -120 -22 -11 -16 -14 -80 -14 -346 0 -304 1 -328 18 -343 33 -30 68 -20 145 38 l72 54 3 -301 c2 -263 4 -304 19 -320 15 -17 63 -18 993 -18 930 0 978 1 993 18 15 16 17 57 19 320 l3 301 72 -54 c78 -59 117 -69 146 -37 15 17 17 55 17 343 0 265 -3 329 -14 345 -12 16 -29 19 -120 22 l-106 4 0 672 c0 639 -1 674 -18 689 -17 16 -100 17 -994 17 -932 0 -976 -1 -991 -18z m1873 -737 l0 -625 -880 0 -880 0 0 625 0 625 880 0 880 0 0 -625z m240 -956 c0 -157 -3 -199 -12 -193 -7 4 -53 38 -101 76 -61 46 -98 68 -117 68 -19 0 -66 -29 -160 -100 -72 -55 -134 -100 -137 -100 -3 0 -65 45 -138 100 -93 71 -139 100 -159 100 -19 0 -64 -28 -154 -97 -70 -53 -134 -97 -142 -97 -8 0 -72 44 -142 97 -90 69 -135 97 -154 97 -20 0 -66 -29 -159 -100 -73 -55 -135 -100 -138 -100 -3 0 -65 45 -137 100 -94 71 -141 100 -160 100 -19 0 -56 -22 -117 -68 -48 -38 -94 -72 -100 -76 -10 -6 -13 36 -13 193 l0 201 1120 0 1120 0 0 -201z m-1280 -299 c91 -68 142 -100 160 -100 18 0 69 32 160 100 73 55 135 100 137 100 2 0 63 -45 137 -100 92 -70 141 -100 160 -100 19 0 65 29 152 95 69 52 127 95 130 95 2 0 4 -133 4 -295 l0 -295 -880 0 -880 0 0 295 c0 162 2 295 4 295 3 0 61 -43 130 -95 90 -69 132 -95 153 -95 20 0 65 29 158 100 72 54 133 99 136 99 3 1 66 -44 139 -99z"/><path d="M1817 3622 c-15 -16 -17 -47 -17 -225 0 -229 2 -237 65 -237 58 0 65 22 65 197 l0 153 95 0 c89 0 98 2 121 26 20 19 24 31 19 52 -11 47 -27 52 -185 52 -130 0 -149 -2 -163 -18z"/><path d="M2397 3622 c-15 -16 -17 -47 -17 -229 0 -235 0 -237 67 -231 56 5 63 26 63 201 l0 147 93 0 c110 0 137 13 137 64 0 59 -18 66 -182 66 -128 0 -147 -2 -161 -18z"/><path d="M2974 3626 c-18 -13 -19 -30 -22 -216 -4 -235 0 -250 68 -250 29 0 42 5 50 19 6 11 10 87 10 175 l0 156 100 0 c87 0 103 3 120 20 25 25 26 72 2 93 -25 23 -297 25 -328 3z"/><path d="M1840 3093 c-37 -13 -40 -33 -40 -243 0 -188 2 -208 18 -223 25 -23 68 -21 92 3 18 18 20 33 20 180 l0 160 105 0 c101 0 105 1 121 26 22 32 10 73 -26 91 -25 13 -258 17 -290 6z"/><path d="M2410 3087 l-25 -13 -3 -213 c-2 -189 0 -216 14 -232 10 -11 29 -19 43 -19 61 1 71 29 71 209 l0 151 99 0 c116 0 134 10 129 69 -2 26 -9 39 -28 48 -34 17 -266 17 -300 0z"/><path d="M2993 3090 c-40 -17 -44 -40 -41 -251 3 -185 5 -202 22 -215 27 -19 70 -18 89 4 14 16 17 44 17 180 l0 162 103 0 c88 0 106 3 120 18 21 23 22 62 3 88 -13 17 -29 19 -153 21 -76 1 -148 -2 -160 -7z"/></g></svg>