<?xml version="1.0" ?><svg id="Layer_1" style="enable-background:new 0 0 512 512;" version="1.1" viewBox="0 0 512 512" xml:space="preserve" xmlns="http://www.w3.org/2000/svg" xmlns:xlink="http://www.w3.org/1999/xlink"><style type="text/css">
	.st0{fill-rule:evenodd;clip-rule:evenodd;}
</style><path class="st0" d="M333.3,15.3h61.6V6h-61.6c-15,0-28.1,9.7-32.5,24l-17.6,59.1H141.5c-6.9,0-13.4,2.9-18,8  c-4.6,5.1-6.8,11.9-6.1,18.8L160,484.2c1.3,12.4,11.6,21.8,24.1,21.8h116c12.5,0,22.9-9.4,24.1-21.7l42.7-368.4  c0.7-6.8-1.5-13.6-6.1-18.7c-4.6-5.1-11.2-8-18-8h-49.9l16.7-56.3C312.9,22.3,322.3,15.3,333.3,15.3z M139.4,205.7l-10.5-91  c-0.4-3.6,0.8-7.1,3.2-9.8c2.4-2.7,5.8-4.2,9.4-4.2h138.3l-31.2,105H139.4z M263.7,305.8l-5.2-16.4c-2.2-7-8.7-11.7-16-11.7  c-1.7,0-3.4,0.3-5.1,0.8l-8.2,2.6l10.9-26.8c1.9-4.7,7.3-7,12.1-5.1l27.6,11.3c4.7,1.9,7,7.3,5.1,12.1l-11.3,27.6  C272,304.2,267.8,306.4,263.7,305.8z M258,343.4l-37.4,11.9c-6.4,2-13.2-1.5-15.3-7.9L193.6,310c-2-6.4,1.5-13.2,7.9-15.3l37.4-11.9  c6.4-2,13.2,1.5,15.3,7.9l11.9,37.4C268,334.6,264.4,341.4,258,343.4z M195.8,421.5l-6.1-39.9c-1-6.8,3.7-13.2,10.5-14.3l39.9-6.1  c6.8-1,13.2,3.7,14.3,10.5l6.1,39.9c1,6.8-3.7,13.2-10.5,14.3l-39.9,6.1C203.2,433,196.8,428.3,195.8,421.5z M265.7,441.6  l-12.8,26.9c-2.2,4.6-7.7,6.6-12.3,4.4l-26.9-12.8c-4.6-2.2-6.6-7.7-4.4-12.3l5.6-11.9l35.7-5.4c2.7-0.4,5.1-1.4,7.2-2.9l3.5,1.6  C266,431.5,267.9,437,265.7,441.6z M286.7,359.4l-12.8,26.9c-2.1,4.5-7.3,6.4-11.9,4.5l-3-19.8c-1.3-8.3-8.6-14.6-17-14.6  c-0.9,0-1.7,0.1-2.6,0.2l-5.4,0.8l0.9-1.9l24.5-7.8c3.9-1.2,7.1-3.8,9.2-7.2l13.6,6.4C286.9,349.3,288.9,354.8,286.7,359.4z   M342.8,100.7c3.6,0,7,1.5,9.4,4.2c2.4,2.7,3.6,6.2,3.2,9.7l-10.5,91.1h-86.5l31.2-105H342.8z"/></svg>