<?xml version="1.0" ?><!DOCTYPE svg  PUBLIC '-//W3C//DTD SVG 1.1//EN'  'http://www.w3.org/Graphics/SVG/1.1/DTD/svg11.dtd'><svg height="512px" style="enable-background:new 0 0 512 512;" version="1.1" viewBox="0 0 512 512" width="512px" xml:space="preserve" xmlns="http://www.w3.org/2000/svg" xmlns:xlink="http://www.w3.org/1999/xlink"><g id="_x36_38_x2C__Fastfood_x2C__food_x2C__hamburger_x2C__usa"><g><g><g><g><path d="M436.681,475.956H76.014c-21.872,0-39.667-17.795-39.667-39.667v-30.333c0-5.522,4.477-10,10-10h420       c5.522,0,10,4.478,10,10v30.333C476.348,458.161,458.553,475.956,436.681,475.956z M56.347,415.956v20.333       c0,10.845,8.822,19.667,19.667,19.667h360.667c10.845,0,19.667-8.822,19.667-19.667v-20.333H56.347z"/></g><g><path d="M466.348,285.956h-420c-5.523,0-10-4.478-10-10V236.29c0-16.726,13.607-30.333,30.333-30.333h379.334       c16.726,0,30.333,13.607,30.333,30.333v39.666C476.348,281.479,471.87,285.956,466.348,285.956z M56.347,265.956h400V236.29       c0-5.698-4.636-10.333-10.333-10.333H66.681c-5.698,0-10.333,4.636-10.333,10.333V265.956z"/></g><g><path d="M427.015,415.956H85.681c-27.203,0-49.333-22.131-49.333-49.333v-11.334c0-27.202,22.131-49.333,49.333-49.333H122.6       c5.358,0,10.398,2.361,13.829,6.478l39.918,47.902l39.919-47.902c3.43-4.116,8.47-6.478,13.828-6.478h196.92       c27.202,0,49.333,22.131,49.333,49.333v11.334C476.348,393.825,454.217,415.956,427.015,415.956z M85.681,325.956       c-16.174,0-29.333,13.159-29.333,29.333v11.334c0,16.174,13.159,29.333,29.333,29.333h341.334       c16.174,0,29.333-13.159,29.333-29.333v-11.334c0-16.174-13.159-29.333-29.333-29.333H231.031l-40.856,49.026       c-3.431,4.116-8.471,6.478-13.828,6.478s-10.397-2.361-13.828-6.477l-40.856-49.027H85.681z"/></g><g><path d="M176.347,385.956c-2.968,0-5.782-1.318-7.682-3.599l-47.001-56.401H46.347c-16.542,0-30-13.458-30-30s13.458-30,30-30       h420c16.542,0,30,13.458,30,30s-13.458,30-30,30H231.031l-47.001,56.401C182.129,384.638,179.315,385.956,176.347,385.956z        M46.347,285.956c-5.514,0-10,4.486-10,10s4.486,10,10,10h80c2.968,0,5.782,1.318,7.682,3.599l42.318,50.781l42.318-50.781       c1.9-2.28,4.714-3.599,7.682-3.599h240c5.514,0,10-4.486,10-10s-4.486-10-10-10H46.347z"/></g><g><path d="M446.348,225.957h-380c-5.523,0-10-4.477-10-10c0-48.292,20.947-93.629,58.982-127.661       c37.722-33.751,87.804-52.339,141.018-52.339s103.296,18.588,141.018,52.339c38.035,34.032,58.982,79.369,58.982,127.661       C456.348,221.479,451.87,225.957,446.348,225.957z M76.695,205.957H436c-5.829-83.582-84.181-150-179.653-150       S82.524,122.375,76.695,205.957z"/></g><g><path d="M316.348,185.957c-2.56,0-5.118-0.977-7.071-2.929c-3.905-3.905-3.905-10.237,0-14.143l20-20       c3.906-3.904,10.236-3.904,14.143,0c3.905,3.905,3.905,10.237,0,14.143l-20,20C321.466,184.98,318.907,185.957,316.348,185.957       z"/></g><g><path d="M246.347,115.957c-2.56,0-5.118-0.976-7.071-2.929c-3.905-3.905-3.905-10.237,0-14.142l20-20       c3.908-3.904,10.238-3.905,14.143,0c3.905,3.905,3.905,10.237,0,14.142l-20.001,20       C251.466,114.98,248.906,115.957,246.347,115.957z"/></g><g><path d="M306.348,135.957c-2.56,0-5.118-0.977-7.071-2.929c-3.905-3.905-3.905-10.237,0-14.143l20-20       c3.906-3.904,10.236-3.904,14.143,0c3.905,3.905,3.905,10.237,0,14.143l-20,20C311.466,134.98,308.907,135.957,306.348,135.957       z"/></g><g><path d="M246.347,175.957c-2.56,0-5.118-0.976-7.071-2.929c-3.905-3.905-3.905-10.237,0-14.142l20-20       c3.908-3.905,10.238-3.904,14.143,0c3.905,3.905,3.905,10.237,0,14.142l-20.001,20       C251.466,174.98,248.906,175.957,246.347,175.957z"/></g><g><path d="M176.347,185.957c-2.559,0-5.119-0.977-7.071-2.929c-3.905-3.905-3.905-10.237,0-14.143l20-20       c3.905-3.904,10.237-3.904,14.143,0c3.905,3.905,3.905,10.237,0,14.143l-20,20C181.466,184.98,178.906,185.957,176.347,185.957       z"/></g><g><path d="M176.347,135.957c-2.559,0-5.119-0.977-7.071-2.929c-3.905-3.905-3.905-10.237,0-14.143l20-20       c3.905-3.904,10.237-3.904,14.143,0c3.905,3.905,3.905,10.237,0,14.143l-20,20C181.466,134.98,178.906,135.957,176.347,135.957       z"/></g><g><path d="M106.347,185.957c-2.559,0-5.119-0.977-7.071-2.929c-3.905-3.905-3.905-10.237,0-14.143l20-20       c3.905-3.904,10.237-3.904,14.143,0c3.905,3.905,3.905,10.237,0,14.143l-20,20C111.466,184.98,108.906,185.957,106.347,185.957       z"/></g><g><path d="M376.348,185.957c-2.56,0-5.118-0.977-7.071-2.929c-3.905-3.905-3.905-10.237,0-14.143l20-20       c3.906-3.904,10.236-3.904,14.143,0c3.905,3.905,3.905,10.237,0,14.143l-20,20C381.466,184.98,378.907,185.957,376.348,185.957       z"/></g></g></g></g></g><g id="Layer_1"/></svg>