<?xml version="1.0" encoding="utf-8"?>
<!-- Svg Vector Icons : http://www.onlinewebfonts.com/icon -->
<!DOCTYPE svg PUBLIC "-//W3C//DTD SVG 1.1//EN" "http://www.w3.org/Graphics/SVG/1.1/DTD/svg11.dtd">
<svg version="1.1" xmlns="http://www.w3.org/2000/svg" xmlns:xlink="http://www.w3.org/1999/xlink" x="0px" y="0px" viewBox="0 0 1000 1000" enable-background="new 0 0 1000 1000" xml:space="preserve">
<metadata> Svg Vector Icons : http://www.onlinewebfonts.com/icon </metadata>
<g><g><polygon points="54.8,586 196.5,586 215.7,740.7 233.5,740.7 233.5,586 233.5,534.4 190.1,534.4 59.3,534.4 58.2,534.4 41.3,259.3 10,259.3 10,534.4 10,551.6 10,586 10,740.7 41.3,740.7 "/><path d="M70.2,517.2h154.7c4.7,0,8.6-3.9,8.6-8.6s-3.9-8.6-8.6-8.6H70.2c-4.7,0-8.6,3.8-8.6,8.6S65.4,517.2,70.2,517.2z"/><polygon points="937.5,534.4 936.4,534.4 805.6,534.4 749.3,534.4 749.3,586 749.3,740.7 780,740.7 799.2,586 940.9,586 954.4,740.7 990,740.7 990,586 990,551.6 990,534.4 990,259.3 954.4,259.3 "/><path d="M749.3,508.6c0,4.7,3.9,8.6,8.6,8.6h154.7c4.7,0,8.6-3.9,8.6-8.6c0-4.7-3.9-8.6-8.6-8.6H757.9C753.1,500,749.3,503.9,749.3,508.6z"/><path d="M162.7,379.6h139.6v361.1h26.6l20.6-292.3H635l20.7,292.3h24.8V379.6h156.8c8.4,0,15.1-6.8,15.1-15.1v-4.1c0-8.4-6.8-15.1-15.1-15.1H162.7c-8.4,0-15.1,6.8-15.1,15.1v4.1C147.5,372.9,154.3,379.6,162.7,379.6z M630.2,379.6l2.4,34.4H351.9l2.4-34.4H630.2z"/></g><g></g><g></g><g></g><g></g><g></g><g></g><g></g><g></g><g></g><g></g><g></g><g></g><g></g><g></g><g></g></g>
</svg>