<?xml version="1.0" encoding="utf-8"?>
<!-- Svg Vector Icons : http://www.onlinewebfonts.com/icon -->
<!DOCTYPE svg PUBLIC "-//W3C//DTD SVG 1.1//EN" "http://www.w3.org/Graphics/SVG/1.1/DTD/svg11.dtd">
<svg version="1.1" xmlns="http://www.w3.org/2000/svg" xmlns:xlink="http://www.w3.org/1999/xlink" x="0px" y="0px" viewBox="0 0 1000 1000" enable-background="new 0 0 1000 1000" xml:space="preserve">
<metadata> Svg Vector Icons : http://www.onlinewebfonts.com/icon </metadata>
<g><g><g><path d="M101.3,787.8h-1L85,538.9H56.7v248.9v15.5v31.1v140H85l8.2-93.3h138.1l11.5,93.3h16.2V873.3v-38.9v-46.7h-39.2H101.3z M229.3,865.6H94.5l2.7-31.1h128.2L229.3,865.6z"/><path d="M895.8,787.8h-1H776.4h-50.9v46.7v140h27.8l11.5-93.3H903l8.2,93.3h32.2v-140v-31.1v-15.6V538.9h-32.2L895.8,787.8z M901.6,865.6H766.8l3.8-31.1h128.2L901.6,865.6z"/><path d="M818.9,680.7v-50.4c0-7.6-6.1-13.7-13.7-13.7H194.8c-7.6,0-13.7,6.1-13.7,13.7v50.4c0,7.6,6.1,13.7,13.7,13.7h173v31.1H430v231.6c0,0.6,0.1,1.2,0.2,1.7h-62.4V990h93.3h77.8h93.3v-31.1h-62.4c0-0.6,0.2-1.2,0.2-1.7V725.6h62.2v-31.1h173C812.8,694.5,818.9,688.3,818.9,680.7z"/><path d="M408.2,10v222.8h-10.4c-12.4,41.6-30,76.9-30,133.5c0,50.5,20,93.8,24.8,119h54.3c9.7-28.6,21.1-70,21.1-119c0-56.6-13.5-91.9-26-133.5h-13V10H408.2z"/><path d="M553.8,10v98h-9.4c-13.1,41.6-26.9,80.7-26.9,140.1c0,62.7,19.6,99.4,24.6,125.8h53.8c10.2-30,22.7-74.4,22.7-125.8c0-59.5-14.8-98.5-27.8-140.1h-16.2V10H553.8z"/></g></g><g></g><g></g><g></g><g></g><g></g><g></g><g></g><g></g><g></g><g></g><g></g><g></g><g></g><g></g><g></g></g>
</svg>