<?xml version="1.0" encoding="iso-8859-1"?>
<!-- Generator: Adobe Illustrator 19.0.0, SVG Export Plug-In . SVG Version: 6.00 Build 0)  -->
<svg version="1.1" id="Capa_1" xmlns="http://www.w3.org/2000/svg" xmlns:xlink="http://www.w3.org/1999/xlink" x="0px" y="0px"
	 viewBox="0 0 512 512" style="enable-background:new 0 0 512 512;" xml:space="preserve">
<g>
	<g>
		<path d="M252.268,161.725c0-8.044-6.544-14.588-14.589-14.588h-1.827L219.656,103.9c-3.298-8.808-9.537-16.356-17.568-21.254
			l-21.396-13.051V17.243C180.692,7.735,172.957,0,163.449,0h-53.31c-9.508,0-17.243,7.735-17.243,17.243v52.352L71.499,82.646
			c-8.03,4.898-14.269,12.446-17.568,21.253l-16.195,43.237h-1.827c-8.044,0-14.589,6.544-14.589,14.588v14.489
			c0,6.881,4.795,12.65,11.215,14.178l2.048,81.519c0.025,1.001,0.088,2.015,0.188,3.017l21.918,219.146
			C57.71,504.294,66.224,512,76.494,512h120.598c10.27,0,18.785-7.706,19.807-17.925l21.918-219.148c0.1-1,0.163-2.015,0.188-3.015
			l2.048-81.52c6.42-1.529,11.215-7.297,11.215-14.178L252.268,161.725L252.268,161.725z M107.901,17.243h0.001
			c0-1.233,1.003-2.236,2.236-2.236h53.31c1.233,0,2.236,1.003,2.236,2.236v49.085h-57.783V17.243z M224.004,271.537
			c-0.016,0.63-0.056,1.269-0.119,1.898l-21.918,219.146c-0.252,2.515-2.347,4.412-4.875,4.412H76.494
			c-2.528,0-4.623-1.897-4.875-4.412L49.702,273.436c-0.063-0.631-0.103-1.27-0.119-1.901l-2.028-80.734h178.477L224.004,271.537z
			 M237.262,175.795h-0.001H36.325v-13.652h35.148c4.144,0,7.503-3.359,7.503-7.503c0-4.144-3.359-7.503-7.503-7.503H53.76
			l14.224-37.973c2.127-5.68,6.151-10.547,11.329-13.706l23.155-14.123h68.651l23.155,14.123c5.178,3.159,9.201,8.026,11.329,13.706
			l14.224,37.973H106.385c-4.144,0-7.503,3.359-7.503,7.503c0,4.144,3.359,7.503,7.503,7.503h130.876V175.795z"/>
	</g>
</g>
<g>
	<g>
		<path d="M394.404,376.11c0.938-0.619,1.812-1.341,2.58-2.186l90.665-99.743c3.103-3.414,3.902-8.346,2.036-12.565
			c-1.866-4.219-6.053-6.946-10.667-6.946H331.534c-3.544-19.373-20.537-34.107-40.919-34.107c-22.944,0-41.61,18.666-41.61,41.61
			c0,22.944,18.666,41.61,41.61,41.61c6.497,0,12.786-1.489,18.502-4.34l67.701,74.48c0.768,0.845,1.643,1.568,2.582,2.187
			c-0.001-0.001-0.002-0.001-0.003-0.002v95.576l-54.745,23.024c-3.994,1.683-6.184,5.825-5.326,10.074
			c0.858,4.248,4.484,7.216,8.819,7.216h117.511c4.334,0,7.96-2.967,8.819-7.215s-1.331-8.391-5.324-10.074
			c-0.003,0-0.005-0.001-0.007-0.002l-54.741-23.022L394.404,376.11L394.404,376.11z M290.615,288.777
			c-14.669,0-26.603-11.934-26.603-26.603s11.934-26.603,26.603-26.603c12.064,0,22.279,8.072,25.525,19.099h-21.356
			c-4.613,0-8.801,2.726-10.667,6.946c-0.7,1.582-1.025,3.265-0.994,4.93c0.051,2.775,1.091,5.502,3.03,7.635l12.223,13.447
			C295.885,288.387,293.277,288.777,290.615,288.777z M415.867,496.993h-57.934l28.806-12.115c0.102-0.043,0.22-0.043,0.323,0
			L415.867,496.993z M386.901,362.706l-55.519-61.078h8.602c4.144,0,7.503-3.359,7.503-7.503s-3.359-7.503-7.503-7.503H317.74
			l-15.402-16.944H471.46l-15.402,16.944h-81.163c-4.144,0-7.503,3.359-7.503,7.503s3.359,7.503,7.503,7.503h67.522L386.901,362.706
			z"/>
	</g>
</g>
<g>
</g>
<g>
</g>
<g>
</g>
<g>
</g>
<g>
</g>
<g>
</g>
<g>
</g>
<g>
</g>
<g>
</g>
<g>
</g>
<g>
</g>
<g>
</g>
<g>
</g>
<g>
</g>
<g>
</g>
</svg>
