<svg id="Capa_1" enable-background="new 0 0 512 512" height="512" viewBox="0 0 512 512" width="512" xmlns="http://www.w3.org/2000/svg"><g id="XMLID_226_"><path id="XMLID_1425_" d="m424.245 481.755c2.894-6.391 4.519-13.474 4.519-20.934 0-12.507-7.302-25.939-22.324-41.064-9.708-9.774-19.354-16.854-19.76-17.151l-8.85-6.467-8.85 6.467c-.406.297-10.052 7.376-19.76 17.151-15.021 15.125-22.324 28.557-22.324 41.064 0 7.46 1.625 14.543 4.519 20.934h-29.001c2.894-6.391 4.519-13.474 4.519-20.934 0-12.507-7.302-25.939-22.324-41.064-9.708-9.774-19.354-16.854-19.76-17.151l-8.849-6.466-8.85 6.467c-.406.297-10.052 7.376-19.76 17.151-15.021 15.125-22.324 28.557-22.324 41.064 0 7.46 1.625 14.543 4.519 20.934h-29.001c2.894-6.391 4.519-13.474 4.519-20.934 0-12.507-7.302-25.939-22.324-41.064-9.708-9.774-19.354-16.854-19.76-17.151l-8.85-6.467-8.85 6.467c-.406.297-10.052 7.376-19.76 17.151-15.021 15.125-22.324 28.557-22.324 41.064 0 7.46 1.625 14.543 4.519 20.934h-87.754v30h512v-30h-87.755zm-67.349-20.934c0-5.11 9.181-16.588 20.88-26.833 2.291 2.006 4.833 4.348 7.377 6.909 10.766 10.839 13.61 17.772 13.61 19.924 0 11.543-9.391 20.934-20.934 20.934s-20.933-9.391-20.933-20.934zm-121.83 0c0-5.11 9.181-16.588 20.88-26.833 2.291 2.006 4.833 4.348 7.377 6.909 10.766 10.839 13.61 17.772 13.61 19.924 0 11.543-9.391 20.934-20.934 20.934s-20.933-9.391-20.933-20.934zm-121.83 0c0-5.11 9.181-16.588 20.88-26.833 2.291 2.006 4.833 4.348 7.377 6.909 10.766 10.839 13.61 17.772 13.61 19.924 0 11.543-9.391 20.934-20.934 20.934s-20.933-9.391-20.933-20.934z"/><path id="XMLID_1430_" d="m64 317.19c0 31.952 25.994 57.946 57.945 57.946h268.109c31.951 0 57.945-25.994 57.945-57.946v-106.945h61v-86.891h-505.999v86.891h61zm384-163.836h31v26.891h-31zm-354 0h324v163.836c0 15.409-12.536 27.946-27.945 27.946h-268.11c-15.409 0-27.945-12.536-27.945-27.946zm-61 26.891v-26.891h31v26.891z"/><path id="XMLID_1433_" d="m177.291 68.87c0-2.732.355-3.356 1.852-5.985 2.302-4.043 5.781-10.154 5.781-20.828s-3.479-16.785-5.781-20.828c-1.496-2.628-1.852-3.252-1.852-5.985v-15h-30v15c0 10.674 3.479 16.785 5.781 20.828 1.496 2.628 1.852 3.252 1.852 5.985s-.355 3.356-1.852 5.985c-2.302 4.043-5.781 10.154-5.781 20.828v15h30z"/><path id="XMLID_1434_" d="m267.184 68.87c0-2.732.355-3.356 1.852-5.985 2.302-4.043 5.781-10.154 5.781-20.828s-3.479-16.785-5.781-20.828c-1.496-2.628-1.852-3.252-1.852-5.985v-15h-30v15c0 10.674 3.479 16.785 5.781 20.828 1.496 2.628 1.852 3.252 1.852 5.985s-.355 3.356-1.852 5.985c-2.302 4.043-5.781 10.154-5.781 20.828v15h30z"/><path id="XMLID_1435_" d="m357.077 68.87c0-2.732.355-3.356 1.852-5.985 2.302-4.043 5.781-10.154 5.781-20.828s-3.479-16.785-5.781-20.828c-1.496-2.628-1.852-3.252-1.852-5.985v-15h-30v15c0 10.674 3.479 16.785 5.781 20.828 1.496 2.628 1.852 3.252 1.852 5.985s-.355 3.356-1.852 5.985c-2.302 4.043-5.781 10.154-5.781 20.828v15h30z"/></g></svg>