<svg id="Capa_1" enable-background="new 0 0 510 510" height="512" viewBox="0 0 510 510" width="512" xmlns="http://www.w3.org/2000/svg"><g><path d="m510 103.301v-55.801h-150v55.801l13.307 124.199h-56.613l13.222-123.402.085-.797v-55.801h-150.001v55.801l13.307 124.199h-56.613l13.222-123.402.085-.797v-55.801h-150.001v55.801l14.579 136.074c-8.955 8.231-14.579 20.032-14.579 33.125 0 24.813 20.187 45 45 45h13.519c-.073.118-.15.232-.222.351-6.386 10.642-8.099 23.096-4.824 35.067s11.088 21.819 22 27.73l94.746 51.321 213.715 30.531h6.066 30 90v-190c0-13.093-5.624-24.894-14.579-33.125l14.494-135.277zm-120-25.801h90v24.199l-.086.801h-89.828l-.086-.801zm-180 0h90l-.086 25h-89.828zm3.3 55h83.4l-10.179 95h-63.042zm-183.3-55h90v24.199l-.086.801h-89.828l-.086-.801zm3.3 55h83.4l-10.179 95h-61.521c-.509 0-1.012.022-1.517.038zm352.766 300-206.285-29.469-90.02-48.761c-3.646-1.975-6.258-5.266-7.352-9.266-1.095-4-.522-8.162 1.611-11.718 3.953-6.588 12.202-9.141 19.184-5.941l98.521 45.155h138.275v-30h-76.923c-12.725 0-23.077-10.353-23.077-23.077v-1.923h150v115zm-232.337-115h56.271v1.923c0 8.266 1.901 16.095 5.286 23.077h-7.013zm266.271 115v-115h45c5.259 0 10.305-.915 15-2.58v117.58zm45-145h-420c-8.271 0-15-6.729-15-15s6.729-15 15-15h420c8.271 0 15 6.729 15 15s-6.729 15-15 15zm-61.521-60-10.179-95h83.4l-10.183 95.038c-.505-.016-63.038-.038-63.038-.038z"/></g></svg>