<svg id="Capa_1" enable-background="new 0 0 512 512" height="512" viewBox="0 0 512 512" width="512" xmlns="http://www.w3.org/2000/svg"><g><path d="m494.398 381.841h-38.968v-26.845c0-4.142-3.357-7.5-7.5-7.5h-32.906v-19.346h32.906c4.143 0 7.5-3.358 7.5-7.5 0-100.566-74.827-183.971-171.728-197.497v-18.249h5.127c13.883 0 25.178-11.294 25.178-25.178s-11.295-25.178-25.178-25.178h-65.66c-13.883 0-25.178 11.294-25.178 25.178s11.295 25.178 25.178 25.178h5.127v18.249c-96.9 13.527-171.728 96.931-171.728 197.497 0 4.142 3.357 7.5 7.5 7.5h32.906v19.346h-32.905c-4.143 0-7.5 3.358-7.5 7.5v26.845h-38.967c-9.706 0-17.602 7.896-17.602 17.602v40.407c0 9.706 7.896 17.602 17.602 17.602h476.797c9.705 0 17.602-7.896 17.602-17.602v-40.407c-.001-9.706-7.897-17.602-17.603-17.602zm-281.406-302.114c0-5.612 4.565-10.178 10.178-10.178h65.66c5.612 0 10.178 4.566 10.178 10.178s-4.565 10.178-10.178 10.178h-65.66c-5.612-.001-10.178-4.567-10.178-10.178zm30.305 25.177h25.406v16.732c-4.202-.266-8.435-.416-12.703-.416s-8.501.151-12.703.416zm-171.728 257.592h63.431c4.143 0 7.5-3.358 7.5-7.5s-3.357-7.5-7.5-7.5h-23.024v-19.346h240.917c4.143 0 7.5-3.358 7.5-7.5s-3.357-7.5-7.5-7.5h-281.173c3.951-98.229 85.098-176.93 184.28-176.93s180.329 78.701 184.28 176.931h-52.352c-4.143 0-7.5 3.358-7.5 7.5s3.357 7.5 7.5 7.5h12.096v19.346h-230.003c-4.143 0-7.5 3.358-7.5 7.5s3.357 7.5 7.5 7.5h270.409v19.345h-368.861zm425.431 77.354c0 1.435-1.167 2.602-2.602 2.602h-476.796c-1.435 0-2.602-1.167-2.602-2.602v-40.407c0-1.435 1.167-2.602 2.602-2.602h476.797c1.435 0 2.602 1.167 2.602 2.602v40.407z"/></g></svg>