<svg height="472pt" viewBox="-68 0 472 472" width="472pt" xmlns="http://www.w3.org/2000/svg"><path d="m314.105469 97.601562 9.183593-15.9375c6.453126-11.261718 8.207032-24.613281 4.878907-37.160156-3.339844-12.558594-11.558594-23.257812-22.832031-29.71875l-12.175782-7.023437c-23.429687-13.523438-53.382812-5.484375-66.894531 17.949219l-9.1875 15.890624-22.679687-.074218h-.261719c-25.730469.019531-49.503907 13.734375-62.402344 36l-9.421875 16.335937c-3.828125-2.207031-8.722656-.890625-10.929688 2.9375l-24 41.597657c-2.203124 3.824218-.890624 8.710937 2.929688 10.921874l.375.214844-20.457031 40.496094c-27.601563 54.691406-49.027344 112.285156-63.878907 171.722656l-6.113281 24.4375c-.867187 3.464844.667969 7.085938 3.761719 8.871094l110.878906 63.945312c3.105469 1.804688 7.027344 1.320313 9.601563-1.183593l18.09375-17.527344c44.003906-42.613281 83.117187-89.996094 116.625-141.273437l24.800781-37.992188 2.457031 1.417969c3.828125 2.207031 8.71875.890625 10.925781-2.9375l24-41.601563c2.210938-3.824218.898438-8.71875-2.925781-10.925781l-2.089843-1.199219 9.425781-16.328125c12.875-22.398437 12.796875-49.964843-.203125-72.289062zm-73.976563-63.90625c9.09375-15.777343 29.253906-21.191406 45.03125-12.09375l12.175782 7.023438c7.585937 4.347656 13.121093 11.550781 15.375 20 2.242187 8.445312 1.066406 17.433594-3.277344 25.015625l-7.515625 13.023437-34.644531-20-34.65625-20zm5.65625 256.578126c-32.863281 50.273437-71.222656 96.734374-114.363281 138.527343l-13.773437 13.359375-100.425782-57.921875 4.640625-18.589843c14.578125-58.273438 35.589844-114.746094 62.648438-168.375l20.054687-39.671876 165.539063 95.421876zm41.71875-45.6875-182.265625-105.105469 16-27.71875 180.167969 103.910156 2.066406 1.183594zm24.382813-63.097657-9.414063 16.328125-166.320312-95.921875 9.449218-16.34375c10.03125-17.3125 28.515626-27.976562 48.527344-28h.207032l25.222656.105469 79.488281 45.839844 12.730469 21.785156c10.082031 17.367188 10.121094 38.796875.109375 56.207031zm0 0"/><path d="m46.039062 338.929688 15.59375 3.566406c2.039063-8.929688 4.285157-17.886719 6.710938-26.640625l-15.425781-4.261719c-2.476563 8.992188-4.789063 18.191406-6.878907 27.335938zm0 0"/><path d="m88.273438 222.265625c-11.433594 23.890625-21.367188 48.46875-29.738282 73.597656l15.199219 5.046875c8.152344-24.507812 17.832031-48.484375 28.984375-71.78125l14.882812-31.023437-14.402343-6.914063zm0 0"/><path d="m130.808594 40v-16c-26.5.027344-47.972656 21.5-48 48h16c0-17.671875 14.324218-32 32-32zm0 0"/><path d="m98.808594 0c-26.5.0273438-47.972656 21.5-48 48h16c0-17.671875 14.324218-32 32-32zm0 0"/><path d="m242.808594 400h-16c0 17.671875-14.328125 32-32 32v16c26.496094-.03125 47.96875-21.503906 48-48zm0 0"/><path d="m226.808594 456v16c26.496094-.03125 47.96875-21.503906 48-48h-16c0 17.671875-14.328125 32-32 32zm0 0"/></svg>