<?xml version="1.0" encoding="iso-8859-1"?>
<!-- Generator: Adobe Illustrator 19.0.0, SVG Export Plug-In . SVG Version: 6.00 Build 0)  -->
<svg version="1.1" id="Capa_1" xmlns="http://www.w3.org/2000/svg" xmlns:xlink="http://www.w3.org/1999/xlink" x="0px" y="0px"
	 viewBox="0 0 512.001 512.001" style="enable-background:new 0 0 512.001 512.001;" xml:space="preserve">
<g>
	<g>
		<path d="M461.867,244.839c-1.359-4.17-5.218-6.972-9.604-6.972h-39.89c-4.054,0-7.339,3.285-7.339,7.339s3.285,7.339,7.339,7.339
			h25.837l-11.561,8.427c-1.697,1.236-3.705,1.89-5.804,1.89H91.156c-2.099,0-4.107-0.654-5.803-1.89l-11.562-8.428h304.434
			c4.054,0,7.339-3.285,7.339-7.339c0-4.054-3.285-7.339-7.339-7.339h-72.049c-0.894-0.466-1.889-0.987-2.992-1.564
			c-20.577-10.773-32.467-16.576-39.676-19.192c0.001,0,0.002,0.001,0.004,0.001v-27.83c1.683-0.259,3.358-0.582,5.011-1.016
			c11.397-2.996,27.736-10.071,40.856-26.765c15.163-19.292,8.737-43.245,2.523-66.41c-3.075-11.46-5.978-22.283-6.275-32.208
			c-0.671-22.451,5.682-41.528,8.445-48.687c1.239-3.213,0.817-6.825-1.13-9.663C310.994,1.694,307.777,0,304.335,0h-96.67
			c-3.442,0-6.66,1.694-8.606,4.532c-1.947,2.838-2.369,6.45-1.13,9.662c2.657,6.888,8.803,25.256,8.482,47.008
			c-0.06,4.053,3.177,7.387,7.23,7.446c0.037,0.001,0.074,0.001,0.11,0.001c4.003,0,7.277-3.215,7.336-7.231
			c0.09-6.081-0.256-11.898-0.882-17.345h71.593c-0.691,6.017-1.048,12.472-0.846,19.247c0.348,11.636,3.612,23.805,6.77,35.574
			c5.522,20.582,10.737,40.021,0.115,53.536c-10.604,13.492-23.825,19.214-33.048,21.639c-5.749,1.513-11.828,1.513-17.578,0
			c-9.224-2.424-22.444-8.147-33.049-21.639c-10.623-13.514-5.408-32.954,0.114-53.535l0.551-2.056
			c1.047-3.916-1.278-7.939-5.193-8.987c-3.914-1.045-7.939,1.279-8.987,5.193l-0.549,2.047
			c-6.214,23.165-12.641,47.118,2.523,66.409c13.121,16.694,29.46,23.769,40.857,26.765c1.653,0.434,3.328,0.757,5.012,1.016
			c-0.001,0-0.001,0-0.002,0v27.969c-6.514,2.431-18.791,7.975-42.657,20.616H59.738c-4.386,0-8.245,2.802-9.604,6.972
			c-1.358,4.17,0.111,8.708,3.654,11.29l22.919,16.706c4.226,3.079,9.222,4.706,14.449,4.706h46.642
			c0.637,3.446,2.69,6.569,5.877,8.537c27.739,17.137,78.076,50.514,103.521,81.498c10.376,12.636,18.536,24.164,26.427,35.312
			c18.172,25.674,34.005,48.021,67.222,68.796l-2.038,5.072c-1.418,3.53-1.374,7.4,0.124,10.897
			c1.499,3.497,4.272,6.197,7.805,7.604l39.531,15.739c1.714,0.682,3.485,1.005,5.229,1.005c5.636-0.001,10.988-3.376,13.212-8.911
			l36.149-89.976c1.419-3.531,1.374-7.4-0.124-10.897s-4.271-6.197-7.804-7.604l-39.531-15.739
			c-7.26-2.889-15.531,0.658-18.441,7.906l-1.482,3.688l-5.916-2.524c-2.602-1.11-4.289-3.683-4.296-6.555
			c-0.029-10.979-1.68-27.099-9.382-41.542c-9.033-16.938-7.793-33.966,3.494-47.947c1.99-2.464,3.865-4.721,5.575-6.707
			c1.913-2.223,3.006-4.893,3.24-7.652h54.654c5.227,0,10.223-1.627,14.45-4.707l22.917-16.704
			C461.755,253.547,463.224,249.01,461.867,244.839z M294.253,29.395h-76.512c-1.252-5.676-2.696-10.651-4.05-14.716h84.616
			C296.948,18.757,295.504,23.728,294.253,29.395z M256.09,230.088c2.513,0.561,8.498,3.165,17.881,7.778h-35.747
			C246.981,233.631,253.581,230.729,256.09,230.088z M319.247,277.539L319.247,277.539c-5.657,7.927-11.366,19.339-12.389,33.918
			c-0.454,6.465-2.88,8.442-4.666,9.367c-0.914,0.473-1.979,0.816-3.174,1.036l-34.652-44.321H319.247z M252.381,286.041
			l25.062,32.057c-2.468-0.948-5.015-2.053-7.606-3.307c-0.036-0.018-0.073-0.035-0.109-0.053c-0.482-0.234-0.966-0.473-1.45-0.717
			c-0.156-0.078-0.312-0.159-0.467-0.238c-0.623-0.317-1.248-0.644-1.874-0.977c-0.38-0.203-0.761-0.405-1.142-0.614
			c-0.271-0.148-0.542-0.3-0.813-0.451c-0.424-0.236-0.848-0.475-1.272-0.719c-0.226-0.13-0.452-0.259-0.679-0.39
			c-0.635-0.37-1.271-0.744-1.906-1.129c-0.016-0.01-0.033-0.019-0.049-0.029c-0.042-0.025-0.086-0.051-0.127-0.076
			c-0.792-0.48-1.609-0.971-2.438-1.467c-0.267-0.16-0.533-0.319-0.802-0.48c-0.85-0.508-1.718-1.023-2.601-1.544
			c-0.174-0.103-0.35-0.206-0.525-0.309c-0.364-0.214-0.724-0.427-1.092-0.644L237.27,277.66
			C243.224,278.278,248.639,281.256,252.381,286.041z M221.646,277.541v-0.001c0.182,1.779,0.723,3.536,1.636,5.173l4.614,8.276
			c-7.062-3.909-13.867-7.609-19.718-10.759c-1.709-0.92-3.491-1.814-5.314-2.689H221.646z M388.404,392.683l38.66,15.392
			l-35.801,89.109l-38.66-15.392L388.404,392.683z M345.955,282.678c-15,18.581-16.832,41.935-5.026,64.075
			c6.284,11.782,7.632,25.359,7.656,34.673c0.023,8.745,5.21,16.602,13.214,20.017l6.203,2.646l-21.596,53.751
			c-29.196-18.78-43.294-38.698-60.803-63.433c-8.041-11.359-16.354-23.105-27.065-36.147
			c-24.489-29.822-69.905-61.148-99.309-79.766c14.457,2.862,30.148,8.284,41.99,14.659c12.859,6.924,30.341,16.505,44.93,25.101
			c0.255,0.15,0.504,0.298,0.756,0.447c0.67,0.396,1.332,0.789,1.988,1.18c0.326,0.194,0.652,0.389,0.973,0.581
			c0.878,0.525,1.748,1.048,2.596,1.562c0.313,0.19,0.655,0.394,1.009,0.605c6.049,3.598,14.671,8.09,24.167,11.086
			c0.208,0.066,0.417,0.131,0.626,0.196c0.319,0.098,0.638,0.195,0.958,0.29c0.482,0.143,0.965,0.28,1.45,0.413
			c0.1,0.027,0.198,0.058,0.297,0.085c0.018,0.005,0.036,0.009,0.054,0.014c0.635,0.171,1.272,0.333,1.911,0.487
			c0.176,0.043,0.35,0.081,0.526,0.122c0.447,0.104,0.895,0.204,1.343,0.299c0.234,0.05,0.468,0.098,0.7,0.145
			c0.374,0.075,0.747,0.144,1.121,0.212c0.261,0.048,0.525,0.097,0.783,0.141c0.284,0.048,0.568,0.088,0.852,0.131
			c0.722,0.11,1.434,0.205,2.136,0.284c0.108,0.012,0.215,0.026,0.323,0.038c0.455,0.048,0.903,0.086,1.35,0.12
			c0.1,0.008,0.2,0.016,0.299,0.023c0.468,0.033,0.93,0.058,1.388,0.077c0.066,0.003,0.132,0.005,0.198,0.007
			c0.492,0.017,0.979,0.027,1.46,0.028c0.004,0,0.008,0,0.013,0c0.095,0,0.192,0,0.286-0.001c0.007,0,0.014-0.002,0.021-0.002
			c5.033-0.038,9.452-1.02,13.206-2.965c5.235-2.711,11.664-8.62,12.559-21.372c1.324-18.853,12.653-30.862,17.179-34.946h11.509
			C348.844,279.134,347.427,280.854,345.955,282.678z"/>
	</g>
</g>
<g>
</g>
<g>
</g>
<g>
</g>
<g>
</g>
<g>
</g>
<g>
</g>
<g>
</g>
<g>
</g>
<g>
</g>
<g>
</g>
<g>
</g>
<g>
</g>
<g>
</g>
<g>
</g>
<g>
</g>
</svg>
