<svg height="480pt" viewBox="0 0 480.00007 480" width="480pt" xmlns="http://www.w3.org/2000/svg"><path d="m118.03125 145.785156c-3.527344-.894531-6.003906-4.058594-6.03125-7.695312v-130.089844c0-4.417969-3.582031-8-8-8h-48c-4.417969 0-8 3.582031-8 8v130.089844c-.027344 3.640625-2.511719 6.800781-6.039062 7.695312-24.707032 6.398438-41.96484425 28.691406-41.960938 54.214844v272c0 4.417969 3.582031 8 8 8h144c4.417969 0 8-3.582031 8-8v-272c0-25.523438-17.257812-47.820312-41.96875-54.214844zm-54.03125-129.785156h32v16h-32zm80 360h-128v-112h128zm-128 88v-72h128v72zm128-216h-128v-48c-.007812-18.234375 12.316406-34.164062 29.96875-38.734375 10.585938-2.71875 18-12.246094 18.03125-23.175781v-90.089844h32v90.089844c.019531 10.933594 7.433594 20.476562 18.023438 23.199218 17.644531 4.566407 29.972656 20.484376 29.976562 38.710938zm0 0"/><path d="m290.230469 178.886719c-11.921875-19.070313-18.238281-41.109375-18.230469-63.597657v-107.289062c0-4.417969-3.582031-8-8-8h-48c-4.417969 0-8 3.582031-8 8v107.289062c.007812 22.480469-6.300781 44.511719-18.214844 63.574219l-1.113281 1.761719c-13.515625 21.613281-20.679687 46.59375-20.671875 72.085938v219.289062c0 4.417969 3.582031 8 8 8h128c4.417969 0 8-3.582031 8-8v-219.289062c.003906-25.5-7.164062-50.488282-20.6875-72.109376zm-66.230469-162.886719h32v16h-32zm72 448h-112v-211.289062c-.007812-22.480469 6.300781-44.511719 18.214844-63.574219l1.113281-1.761719c13.515625-21.613281 20.679687-46.59375 20.671875-72.085938v-67.289062h32v67.289062c-.003906 25.5 7.164062 50.488282 20.6875 72.109376l1.082031 1.714843c11.921875 19.070313 18.238281 41.109375 18.230469 63.597657zm0 0"/><path d="m240 280c-22.089844 0-40 17.910156-40 40s17.910156 40 40 40 40-17.910156 40-40c-.027344-22.082031-17.917969-39.972656-40-40zm0 64c-13.253906 0-24-10.746094-24-24s10.746094-24 24-24 24 10.746094 24 24-10.746094 24-24 24zm0 0"/><path d="m433.6875 76.839844-.085938-.039063c-1.003906-.707031-1.601562-1.855469-1.601562-3.082031v-65.71875c0-4.417969-3.582031-8-8-8h-48c-4.417969 0-8 3.582031-8 8v65.703125c0 1.226563-.597656 2.375-1.601562 3.082031l-.09375.054688c-28.960938 19.265625-46.347657 51.753906-46.304688 86.535156v308.625c0 4.417969 3.582031 8 8 8h144c4.417969 0 8-3.582031 8-8v-308.625c.039062-34.78125-17.347656-67.273438-46.3125-86.535156zm-49.6875-60.839844h32v16h-32zm80 448h-128v-300.625c-.035156-29.375 14.621094-56.820312 39.054688-73.128906l.144531-.09375c5.503906-3.664063 8.804687-9.839844 8.800781-16.449219v-25.703125h32v25.703125c-.003906 6.609375 3.296875 12.785156 8.800781 16.449219l.144531.085937c24.429688 16.316407 39.085938 43.761719 39.054688 73.136719zm0 0"/><path d="m360 208c-4.417969 0-8 3.582031-8 8v208c0 4.417969 3.582031 8 8 8h80c4.417969 0 8-3.582031 8-8v-208c0-4.417969-3.582031-8-8-8zm72 208h-64v-192h64zm0 0"/></svg>